<?xml version="1.0" encoding="utf-8"?>
<!-- Generator: Adobe Illustrator 24.0.2, SVG Export Plug-In . SVG Version: 6.00 Build 0)  -->
<svg version="1.1" id="Layer_1" xmlns="http://www.w3.org/2000/svg" xmlns:xlink="http://www.w3.org/1999/xlink" x="0px" y="0px"
	 viewBox="0 0 679.7 608.6" style="enable-background:new 0 0 679.7 608.6;" xml:space="preserve">
<style type="text/css">
	.st0{fill:url(#SVGID_1_);}
	.st1{fill:#0A0A0A;}
	.st2{fill:#0C0C0C;}
</style>
<g id="Background">
</g>
<g id="Object">
	<g>
		
			<linearGradient id="SVGID_1_" gradientUnits="userSpaceOnUse" x1="0" y1="281.8725" x2="679.744" y2="281.8725" gradientTransform="matrix(1 0 0 -1 0 608.5239)">
			<stop  offset="0" style="stop-color:#FF6A3D"/>
			<stop  offset="1" style="stop-color:#F4DB7D"/>
		</linearGradient>
		<path class="st0" d="M470.1,48.2c61.2-6.9,129.9-7.2,176,33c35.9,31.4,47.4,92.7,13,125.7c-19.4,18.6-47.7,24.5-73.5,33
			c-25.8,8.5-53,24.2-58.8,50.3c-6.1,27.2,13,52.4,28,75.9C576.9,401.5,591,443,586.4,484c-7.7,67.1-71.1,123.5-139.8,124.6
			c-47.1,0.5-92.1-21.8-126.5-53.5c-22.4-20.8-41.3-45.8-67.6-62.3c-37.5-23.4-84.1-25.3-128.1-31.9s-91.3-22.1-113.2-60.2
			C-3.8,373.8-2.7,340,8.4,311.2c11.2-28.8,31.4-53.2,53.5-75.3C173,123.8,314.9,66,470.1,48.2z"/>
		<g>
			<g>
				<g>
					<path class="st1" d="M340.2,605.4c-169.9,0-307.8-135.8-307.8-302.7S170.6,0,340.2,0c54,0,107.3,14.1,153.9,40.5
						c6.4,3.7,8.5,11.7,5.1,18.1c-3.7,6.4-11.7,8.5-18.1,5.1c-42.6-24.2-91.3-37-140.8-37C185.2,26.6,59,150.4,59,302.7
						s126.2,276.1,281.1,276.1S621.3,455,621.3,302.7c0-49.3-13.3-97.7-38.6-139.8c-3.7-6.4-1.9-14.4,4.5-18.4
						c6.4-3.7,14.4-1.9,18.4,4.5c27.7,46.3,42.6,99.6,42.6,153.6C648.2,469.6,510,605.4,340.2,605.4z"/>
				</g>
			</g>
		</g>
		<g>
			<g>
				<path class="st2" d="M245.9,323.7c0-65.5,46.9-118.5,120.6-118.5c26.1,0,48.2,7.2,62.8,20c5.6,5.1,5.6,13.8-0.3,18.9l-1.6,1.3
					c-4.8,4-11.7,4-16.5,0c-11.4-9.9-26.9-15.2-46.6-15.2c-55.9,0-90.5,42.1-90.5,91.6c0,35.7,23.4,59.6,67.9,59.6
					c19.7,0,37-5.3,51.1-16c5.3-4,12.5-2.9,16.8,1.9l0,0c4.8,5.3,4,13.6-1.6,18.1c-17.8,14.1-41.8,21-68.2,21
					C280.5,406.5,245.9,372.7,245.9,323.7z"/>
			</g>
			<g>
				<path class="st2" d="M342.3,167.5L342.3,167.5c7.7,0,13.6,7.2,12,14.6l-47.7,238.6c-1.1,5.9-6.1,9.9-12,9.9l0,0
					c-7.7,0-13.6-7.2-12-14.6l47.7-238.6C331.4,171.7,336.4,167.5,342.3,167.5z"/>
				<path class="st2" d="M386.5,167.5L386.5,167.5c7.7,0,13.6,7.2,12,14.6l-47.7,238.6c-1.1,5.9-6.1,9.9-12,9.9l0,0
					c-7.7,0-13.6-7.2-12-14.6l47.7-238.6C375.6,171.7,380.6,167.5,386.5,167.5z"/>
			</g>
		</g>
	</g>
</g>
</svg>
