<?xml version="1.0" encoding="utf-8"?>
<!-- Generator: Adobe Illustrator 24.0.2, SVG Export Plug-In . SVG Version: 6.00 Build 0)  -->
<svg version="1.1" xmlns="http://www.w3.org/2000/svg" xmlns:xlink="http://www.w3.org/1999/xlink" x="0px" y="0px"
	 viewBox="0 0 1200 800" style="enable-background:new 0 0 1200 800;" xml:space="preserve">
<style type="text/css">
	.st0{fill:url(#SVGID_1_);}
	.st1{fill:#0A0A0A;}
	.st2{fill:#0C0C0C;}
</style>
<g id="Background">
</g>
<g id="Object">
	<g>
		<linearGradient id="SVGID_1_" gradientUnits="userSpaceOnUse" x1="472.3474" y1="393.0819" x2="727.6526" y2="393.0819">
			<stop  offset="0" style="stop-color:#FF6A3D"/>
			<stop  offset="1" style="stop-color:#F4DB7D"/>
		</linearGradient>
		<path class="st0" d="M648.9,288.5c23-2.6,48.8-2.7,66.1,12.4c13.5,11.8,17.8,34.8,4.9,47.2c-7.3,7-17.9,9.2-27.6,12.4
			c-9.7,3.2-19.9,9.1-22.1,18.9c-2.3,10.2,4.9,19.7,10.5,28.5c8.3,13.3,13.6,28.9,11.9,44.3c-2.9,25.2-26.7,46.4-52.5,46.8
			c-17.7,0.2-34.6-8.2-47.5-20.1c-8.4-7.8-15.5-17.2-25.4-23.4c-14.1-8.8-31.6-9.5-48.1-12c-16.5-2.5-34.3-8.3-42.5-22.6
			c-5.7-10.1-5.3-22.8-1.1-33.6c4.2-10.8,11.8-20,20.1-28.3C537.3,316.9,590.6,295.2,648.9,288.5z"/>
		<g>
			<g>
				<g>
					<path class="st1" d="M600.1,497.8c-63.8,0-115.6-51-115.6-113.7c0-62.7,51.9-113.7,115.6-113.7c20.3,0,40.3,5.3,57.8,15.2
						c2.4,1.4,3.2,4.4,1.9,6.8c-1.4,2.4-4.4,3.2-6.8,1.9c-16-9.1-34.3-13.9-52.9-13.9c-58.2,0-105.6,46.5-105.6,103.7
						c0,57.2,47.4,103.7,105.6,103.7s105.6-46.5,105.6-103.7c0-18.5-5-36.7-14.5-52.5c-1.4-2.4-0.7-5.4,1.7-6.9
						c2.4-1.4,5.4-0.7,6.9,1.7c10.4,17.4,16,37.4,16,57.7C715.8,446.8,663.9,497.8,600.1,497.8z"/>
				</g>
			</g>
		</g>
		<g>
			<g>
				<path class="st2" d="M564.7,392c0-24.6,17.6-44.5,45.3-44.5c9.8,0,18.1,2.7,23.6,7.5c2.1,1.9,2.1,5.2-0.1,7.1l-0.6,0.5
					c-1.8,1.5-4.4,1.5-6.2,0c-4.3-3.7-10.1-5.7-17.5-5.7c-21,0-34,15.8-34,34.4c0,13.4,8.8,22.4,25.5,22.4c7.4,0,13.9-2,19.2-6
					c2-1.5,4.7-1.1,6.3,0.7l0,0c1.8,2,1.5,5.1-0.6,6.8c-6.7,5.3-15.7,7.9-25.6,7.9C577.7,423.1,564.7,410.4,564.7,392z"/>
			</g>
			<g>
				<path class="st2" d="M600.9,333.3L600.9,333.3c2.9,0,5.1,2.7,4.5,5.5l-17.9,89.6c-0.4,2.2-2.3,3.7-4.5,3.7h0
					c-2.9,0-5.1-2.7-4.5-5.5l17.9-89.6C596.8,334.9,598.7,333.3,600.9,333.3z"/>
				<path class="st2" d="M617.5,333.3L617.5,333.3c2.9,0,5.1,2.7,4.5,5.5l-17.9,89.6c-0.4,2.2-2.3,3.7-4.5,3.7h0
					c-2.9,0-5.1-2.7-4.5-5.5L613,337C613.4,334.9,615.3,333.3,617.5,333.3z"/>
			</g>
		</g>
	</g>
</g>
</svg>
