<svg version="1.1" id="Layer_1" xmlns="http://www.w3.org/2000/svg" x="0" y="0" viewBox="0 0 679.7 608.6" xml:space="preserve"><style>.st2{fill:#0c0c0c}</style><g id="Object"><linearGradient id="SVGID_1_" gradientUnits="userSpaceOnUse" x1="0" y1="281.873" x2="679.744" y2="281.873" gradientTransform="matrix(1 0 0 -1 0 608.524)"><stop offset="0" stop-color="#ff6a3d"/><stop offset="1" stop-color="#f4db7d"/></linearGradient><path d="M470.1 48.2c61.2-6.9 129.9-7.2 176 33 35.9 31.4 47.4 92.7 13 125.7-19.4 18.6-47.7 24.5-73.5 33-25.8 8.5-53 24.2-58.8 50.3-6.1 27.2 13 52.4 28 75.9C576.9 401.5 591 443 586.4 484c-7.7 67.1-71.1 123.5-139.8 124.6-47.1.5-92.1-21.8-126.5-53.5-22.4-20.8-41.3-45.8-67.6-62.3-37.5-23.4-84.1-25.3-128.1-31.9s-91.3-22.1-113.2-60.2c-15-26.9-13.9-60.7-2.8-89.5 11.2-28.8 31.4-53.2 53.5-75.3C173 123.8 314.9 66 470.1 48.2z" fill="url(#SVGID_1_)"/><path d="M340.2 605.4c-169.9 0-307.8-135.8-307.8-302.7S170.6 0 340.2 0c54 0 107.3 14.1 153.9 40.5 6.4 3.7 8.5 11.7 5.1 18.1-3.7 6.4-11.7 8.5-18.1 5.1-42.6-24.2-91.3-37-140.8-37C185.2 26.6 59 150.4 59 302.7s126.2 276.1 281.1 276.1S621.3 455 621.3 302.7c0-49.3-13.3-97.7-38.6-139.8-3.7-6.4-1.9-14.4 4.5-18.4 6.4-3.7 14.4-1.9 18.4 4.5 27.7 46.3 42.6 99.6 42.6 153.6 0 167-138.2 302.8-308 302.8z" fill="#0a0a0a"/><path class="st2" d="M245.9 323.7c0-65.5 46.9-118.5 120.6-118.5 26.1 0 48.2 7.2 62.8 20 5.6 5.1 5.6 13.8-.3 18.9l-1.6 1.3c-4.8 4-11.7 4-16.5 0-11.4-9.9-26.9-15.2-46.6-15.2-55.9 0-90.5 42.1-90.5 91.6 0 35.7 23.4 59.6 67.9 59.6 19.7 0 37-5.3 51.1-16 5.3-4 12.5-2.9 16.8 1.9 4.8 5.3 4 13.6-1.6 18.1-17.8 14.1-41.8 21-68.2 21-59.3.1-93.9-33.7-93.9-82.7z"/><path class="st2" d="M342.3 167.5c7.7 0 13.6 7.2 12 14.6l-47.7 238.6c-1.1 5.9-6.1 9.9-12 9.9-7.7 0-13.6-7.2-12-14.6l47.7-238.6c1.1-5.7 6.1-9.9 12-9.9zM386.5 167.5c7.7 0 13.6 7.2 12 14.6l-47.7 238.6c-1.1 5.9-6.1 9.9-12 9.9-7.7 0-13.6-7.2-12-14.6l47.7-238.6c1.1-5.7 6.1-9.9 12-9.9z"/></g></svg>